<svg width="96" height="60" viewBox="0 0 96 60" version="1.1" xmlns="http://www.w3.org/2000/svg"><title>BFI-logo</title><g id="Page-1" stroke="none" stroke-width="1" fill="none" fill-rule="evenodd"><g id="BFI-logo" fill-rule="nonzero"><path id="Frame" fill="#414141" d="M95.25 60H0V0h70.526z"/><g id="Logo" transform="translate(10 15)" fill="#FFF"><path d="M.49 1h12a34.67 34.67 0 0 1 5.31.3 7.81 7.81 0 0 1 3.13 1.24A7.7 7.7 0 0 1 23.22 5a6.79 6.79 0 0 1 .92 3.51 7.11 7.11 0 0 1-4.22 6.51 7.9 7.9 0 0 1 4.22 2.72 7.23 7.23 0 0 1 1.47 4.52 8.92 8.92 0 0 1-1 4 8 8 0 0 1-2.6 3.09A8.58 8.58 0 0 1 18 30.8c-1.007.107-3.443.173-7.31.2H.49V1zm6.06 5v6.94h4c2.36 0 3.827-.033 4.4-.1a4 4 0 0 0 2.45-1.07 3.17 3.17 0 0 0 .89-2.34 3.29 3.29 0 0 0-.77-2.26A3.47 3.47 0 0 0 15.2 6.1c-.6-.067-2.333-.1-5.2-.1H6.55zm0 11.93v8h5.61a27.42 27.42 0 0 0 4.15-.18 3.76 3.76 0 0 0 2.2-1.2 3.69 3.69 0 0 0 .84-2.55 3.91 3.91 0 0 0-.65-2.29 3.7 3.7 0 0 0-1.89-1.37 20.58 20.58 0 0 0-5.37-.43l-4.89.02z" id="Shape"/><path id="Shape" d="M24.9 31V1h20.57v5.08H31v7.1h12.49v5.07H31V31z"/><path id="Shape" d="M45.25 31V1h6.06v30z"/></g></g></g></svg>