<svg xmlns="http://www.w3.org/2000/svg" viewBox="0 0 150.25 60"><defs><style>.cls-1{fill:#414141}.cls-2{fill:#fff}</style></defs><title>BFI logo</title><g id="Layer_2" data-name="Layer 2"><g id="Layer_1-2" data-name="Layer 1"><path id="Frame" class="cls-1" d="M150.25 60H0V0h111.25l39 60z"/><g id="Logo"><path class="cls-2" d="M10.49 15h12a34.67 34.67 0 0 1 5.31.3 7.81 7.81 0 0 1 3.13 1.24A7.7 7.7 0 0 1 33.22 19a6.79 6.79 0 0 1 .92 3.51 7.11 7.11 0 0 1-4.22 6.51 7.9 7.9 0 0 1 4.22 2.72 7.23 7.23 0 0 1 1.47 4.52 8.92 8.92 0 0 1-1 4 8 8 0 0 1-2.6 3.09A8.58 8.58 0 0 1 28 44.8q-1.51.16-7.31.2h-10.2zm6.06 5v6.94h4q3.54 0 4.4-.1a4 4 0 0 0 2.45-1.07 3.17 3.17 0 0 0 .89-2.34 3.29 3.29 0 0 0-.77-2.26 3.47 3.47 0 0 0-2.32-1.07q-.9-.1-5.2-.1zm0 11.93v8h5.61a27.42 27.42 0 0 0 4.15-.18 3.76 3.76 0 0 0 2.2-1.2 3.69 3.69 0 0 0 .84-2.55 3.91 3.91 0 0 0-.65-2.29 3.7 3.7 0 0 0-1.89-1.37 20.58 20.58 0 0 0-5.37-.43z"/><path class="cls-2" d="M34.9 45V15h20.57v5.08H41v7.1h12.49v5.07H41V45z"/><path class="cls-2" d="M55.25 45V15h6.06v30zm9.24-23.23V15H67a3.14 3.14 0 0 1 1.24.21 1.6 1.6 0 0 1 .73.63 1.67 1.67 0 0 1 .27.89 1.53 1.53 0 0 1-.24.82 1.68 1.68 0 0 1-.71.62 1.77 1.77 0 0 1 .94.61 1.64 1.64 0 0 1 .33 1 2 2 0 0 1-.2.88 1.71 1.71 0 0 1-.5.63 2.07 2.07 0 0 1-.74.33 4.51 4.51 0 0 1-1.09.11zm.9-3.92h1.46a3.26 3.26 0 0 0 .85-.08 1 1 0 0 0 .51-.34 1 1 0 0 0 .17-.59 1.09 1.09 0 0 0-.16-.59.82.82 0 0 0-.46-.35 3.86 3.86 0 0 0-1-.09h-1.37zm0 3.13h1.68a3.88 3.88 0 0 0 .61 0 1.46 1.46 0 0 0 .52-.18 1 1 0 0 0 .34-.38 1.18 1.18 0 0 0 .13-.57 1.12 1.12 0 0 0-.19-.66 1 1 0 0 0-.54-.39 3.33 3.33 0 0 0-1-.11h-1.55zm8.61.18a3.1 3.1 0 0 1-.89.55 2.57 2.57 0 0 1-.92.16 1.78 1.78 0 0 1-1.24-.39 1.3 1.3 0 0 1-.43-1 1.34 1.34 0 0 1 .16-.66 1.36 1.36 0 0 1 .43-.48 2 2 0 0 1 .6-.27 5.94 5.94 0 0 1 .74-.12 7.6 7.6 0 0 0 1.48-.29v-.22a.92.92 0 0 0-.24-.72 1.39 1.39 0 0 0-.95-.28 1.47 1.47 0 0 0-.87.21 1.25 1.25 0 0 0-.41.73l-.81-.11a2 2 0 0 1 .36-.84 1.6 1.6 0 0 1 .73-.49 3.27 3.27 0 0 1 1.11-.17 2.94 2.94 0 0 1 1 .15 1.35 1.35 0 0 1 .58.37 1.31 1.31 0 0 1 .26.57 4.67 4.67 0 0 1 0 .77v1.11a11.73 11.73 0 0 0 .05 1.47 1.84 1.84 0 0 0 .21.59h-.87a1.76 1.76 0 0 1-.08-.64zm-.07-1.86a6.1 6.1 0 0 1-1.36.31 3.14 3.14 0 0 0-.72.17.72.72 0 0 0-.33.27.73.73 0 0 0 .14.95 1.08 1.08 0 0 0 .74.22 1.71 1.71 0 0 0 .85-.21 1.29 1.29 0 0 0 .55-.57 2 2 0 0 0 .13-.83zm2.15 2.47v-4.9h.75v.7a1.76 1.76 0 0 1 1.56-.81 2 2 0 0 1 .81.16 1.28 1.28 0 0 1 .56.42 1.6 1.6 0 0 1 .26.61 4.76 4.76 0 0 1 0 .81v3h-.83v-3a2.24 2.24 0 0 0-.1-.76.8.8 0 0 0-.34-.4 1.09 1.09 0 0 0-.58-.15 1.35 1.35 0 0 0-.92.34 1.66 1.66 0 0 0-.39 1.28v2.68zm5.31 0V15h.83v3.86l2-2h1.08l-1.87 1.82 2.06 3.08h-1l-1.62-2.51-.59.56v1.94zm4.44-1.47l.82-.13a1.15 1.15 0 0 0 .39.76 1.34 1.34 0 0 0 .88.26 1.3 1.3 0 0 0 .85-.23.7.7 0 0 0 .28-.55.5.5 0 0 0-.25-.41 3.6 3.6 0 0 0-.85-.28 7.74 7.74 0 0 1-1.27-.4 1.21 1.21 0 0 1-.68-1.15 1.26 1.26 0 0 1 .15-.61 1.35 1.35 0 0 1 .41-.46 1.72 1.72 0 0 1 .53-.24 2.51 2.51 0 0 1 .72-.1 2.84 2.84 0 0 1 1 .17 1.38 1.38 0 0 1 .64.45 1.76 1.76 0 0 1 .29.76l-.81.11a.89.89 0 0 0-.32-.59 1.17 1.17 0 0 0-.75-.21 1.36 1.36 0 0 0-.82.19.55.55 0 0 0-.24.44.46.46 0 0 0 .1.29.73.73 0 0 0 .32.22l.73.21a10.22 10.22 0 0 1 1.23.39 1.25 1.25 0 0 1 .55.44 1.22 1.22 0 0 1 .2.71 1.4 1.4 0 0 1-.24.78 1.57 1.57 0 0 1-.7.57 2.55 2.55 0 0 1-1 .2 2.3 2.3 0 0 1-1.46-.4 1.85 1.85 0 0 1-.7-1.19zM64.57 33.33v-6.77h4.57v.8h-3.67v2.1h3.18v.8h-3.18v3.07zm5.37-2.45a2.53 2.53 0 0 1 .76-2 2.28 2.28 0 0 1 1.54-.54 2.2 2.2 0 0 1 1.66.66 2.52 2.52 0 0 1 .64 1.83 3.24 3.24 0 0 1-.28 1.49 2 2 0 0 1-.83.84 2.41 2.41 0 0 1-1.18.3 2.2 2.2 0 0 1-1.66-.66 2.64 2.64 0 0 1-.65-1.92zm.85 0a2.09 2.09 0 0 0 .41 1.41 1.37 1.37 0 0 0 2.06 0 2.14 2.14 0 0 0 .41-1.44 2 2 0 0 0-.41-1.38 1.37 1.37 0 0 0-2.06 0 2.08 2.08 0 0 0-.4 1.41zm4.77 2.45v-4.9h.75v.74a2 2 0 0 1 .53-.69.92.92 0 0 1 .53-.17 1.62 1.62 0 0 1 .85.27l-.29.77a1.19 1.19 0 0 0-.61-.18.79.79 0 0 0-.49.16.89.89 0 0 0-.31.45 3.23 3.23 0 0 0-.14 1v2.57zM64.68 44.89v-6.77h.9v6.77zm2.43 0V40h.75v.7a1.76 1.76 0 0 1 1.56-.81 2 2 0 0 1 .81.16 1.28 1.28 0 0 1 .56.42 1.6 1.6 0 0 1 .26.61 4.76 4.76 0 0 1 0 .81v3h-.83v-3a2.24 2.24 0 0 0-.1-.76.8.8 0 0 0-.34-.4 1.1 1.1 0 0 0-.58-.15 1.35 1.35 0 0 0-.92.34 1.66 1.66 0 0 0-.39 1.28v2.68zm4.98-1.46l.82-.13a1.15 1.15 0 0 0 .39.76 1.34 1.34 0 0 0 .88.26 1.3 1.3 0 0 0 .85-.23.7.7 0 0 0 .28-.55.51.51 0 0 0-.24-.44 3.61 3.61 0 0 0-.85-.28 7.73 7.73 0 0 1-1.27-.4 1.21 1.21 0 0 1-.72-1.12 1.26 1.26 0 0 1 .15-.61 1.35 1.35 0 0 1 .41-.46 1.72 1.72 0 0 1 .53-.24 2.51 2.51 0 0 1 .72-.1A2.84 2.84 0 0 1 75 40a1.38 1.38 0 0 1 .64.45 1.76 1.76 0 0 1 .29.76l-.81.11a.89.89 0 0 0-.32-.59 1.17 1.17 0 0 0-.75-.21 1.36 1.36 0 0 0-.82.19.55.55 0 0 0-.24.44.46.46 0 0 0 .1.29.73.73 0 0 0 .32.22l.73.21a10.22 10.22 0 0 1 1.23.39 1.25 1.25 0 0 1 .55.44 1.22 1.22 0 0 1 .2.71 1.39 1.39 0 0 1-.24.78 1.56 1.56 0 0 1-.7.57 2.55 2.55 0 0 1-1 .2 2.3 2.3 0 0 1-1.46-.4 1.85 1.85 0 0 1-.63-1.13zm6.91.72l.12.73a3.09 3.09 0 0 1-.63.07 1.42 1.42 0 0 1-.7-.14.8.8 0 0 1-.35-.38 3 3 0 0 1-.1-1v-2.8h-.61V40h.61v-1.23l.83-.5V40H79v.65h-.84v2.85a1.44 1.44 0 0 0 0 .46.34.34 0 0 0 .14.16.55.55 0 0 0 .28.06zm.89-5.07v-1h.83v1zm0 5.81V40h.83v4.9zm3.97-.74l.12.73a3.09 3.09 0 0 1-.63.07 1.42 1.42 0 0 1-.7-.14.8.8 0 0 1-.35-.38 3 3 0 0 1-.1-1v-2.8h-.61V40h.61v-1.23l.83-.5V40h.84v.65H83v2.85a1.44 1.44 0 0 0 0 .46.34.34 0 0 0 .14.16.55.55 0 0 0 .28.06zm4.08.74v-.72a1.79 1.79 0 0 1-1.56.83 2 2 0 0 1-.81-.17 1.33 1.33 0 0 1-.56-.42 1.56 1.56 0 0 1-.26-.62 4.22 4.22 0 0 1-.05-.78V40h.83v2.72a4.85 4.85 0 0 0 .05.88.87.87 0 0 0 .33.51 1 1 0 0 0 .63.19 1.37 1.37 0 0 0 .7-.19 1.07 1.07 0 0 0 .46-.52 2.62 2.62 0 0 0 .14-1V40h.83v4.9zm3.92-.74l.12.73a3.09 3.09 0 0 1-.63.07 1.42 1.42 0 0 1-.7-.14.8.8 0 0 1-.35-.38 3 3 0 0 1-.1-1v-2.8h-.61V40h.61v-1.23l.83-.5V40h.84v.65H91v2.85a1.44 1.44 0 0 0 0 .46.34.34 0 0 0 .14.16.55.55 0 0 0 .28.06zm.87-5.07v-1h.83v1zm0 5.81V40h.83v4.9zm1.84-2.45a2.53 2.53 0 0 1 .76-2 2.28 2.28 0 0 1 1.54-.54 2.2 2.2 0 0 1 1.65.66 2.52 2.52 0 0 1 .64 1.83 3.24 3.24 0 0 1-.28 1.49 2 2 0 0 1-.83.84 2.41 2.41 0 0 1-1.18.3 2.2 2.2 0 0 1-1.66-.66 2.64 2.64 0 0 1-.64-1.92zm.85 0a2.09 2.09 0 0 0 .41 1.41 1.37 1.37 0 0 0 2.06 0 2.14 2.14 0 0 0 .41-1.44 2 2 0 0 0-.4-1.41 1.37 1.37 0 0 0-2.06 0 2.08 2.08 0 0 0-.41 1.44zm4.78 2.45V40h.75v.7a1.76 1.76 0 0 1 1.56-.81 2 2 0 0 1 .81.16 1.28 1.28 0 0 1 .56.42 1.6 1.6 0 0 1 .26.61 4.76 4.76 0 0 1 0 .81v3h-.83v-3a2.24 2.24 0 0 0-.1-.76.8.8 0 0 0-.34-.4 1.1 1.1 0 0 0-.58-.15 1.35 1.35 0 0 0-.92.34 1.66 1.66 0 0 0-.39 1.28v2.68zm4.98-1.46l.82-.13a1.15 1.15 0 0 0 .39.76 1.34 1.34 0 0 0 .88.26 1.3 1.3 0 0 0 .85-.23.7.7 0 0 0 .28-.55.51.51 0 0 0-.24-.44 3.61 3.61 0 0 0-.85-.28 7.73 7.73 0 0 1-1.27-.4 1.21 1.21 0 0 1-.72-1.12 1.26 1.26 0 0 1 .15-.61 1.35 1.35 0 0 1 .41-.46 1.72 1.72 0 0 1 .53-.24 2.51 2.51 0 0 1 .72-.1 2.84 2.84 0 0 1 1 .17 1.38 1.38 0 0 1 .64.45 1.76 1.76 0 0 1 .29.76l-.81.11a.89.89 0 0 0-.32-.59 1.17 1.17 0 0 0-.75-.21 1.36 1.36 0 0 0-.82.19.55.55 0 0 0-.24.44.46.46 0 0 0 .1.29.73.73 0 0 0 .32.22l.73.21a10.22 10.22 0 0 1 1.23.39 1.25 1.25 0 0 1 .55.44 1.22 1.22 0 0 1 .2.71 1.39 1.39 0 0 1-.24.78 1.56 1.56 0 0 1-.7.57 2.55 2.55 0 0 1-1 .2 2.3 2.3 0 0 1-1.46-.4 1.85 1.85 0 0 1-.67-1.19z"/></g></g></g></svg>